<mxfile host="app.diagrams.net" modified="2021-03-20T17:48:55.612Z" agent="5.0 (Windows NT 10.0; Win64; x64) AppleWebKit/537.36 (KHTML, like Gecko) Chrome/89.0.4389.82 Safari/537.36" etag="IyX1c9QIGvliFXMeMqih" version="14.4.8" type="github">
  <diagram id="cWwRmzPN1MHZdzja27eT" name="第 1 页">
    <mxGraphModel dx="1422" dy="706" grid="0" gridSize="10" guides="1" tooltips="1" connect="1" arrows="1" fold="1" page="1" pageScale="1" pageWidth="827" pageHeight="1169" math="0" shadow="1">
      <root>
        <mxCell id="0" />
        <mxCell id="1" parent="0" />
        <mxCell id="IDVhuWLsbfSZycR1wHgU-45" value="" style="group" vertex="1" connectable="0" parent="1">
          <mxGeometry x="180" y="37" width="470" height="201" as="geometry" />
        </mxCell>
        <mxCell id="IDVhuWLsbfSZycR1wHgU-46" value="" style="group" vertex="1" connectable="0" parent="IDVhuWLsbfSZycR1wHgU-45">
          <mxGeometry x="350" width="120" height="164" as="geometry" />
        </mxCell>
        <mxCell id="IDVhuWLsbfSZycR1wHgU-47" value="my_data_list" style="swimlane;fontStyle=0;childLayout=stackLayout;horizontal=1;startSize=26;fillColor=#d5e8d4;horizontalStack=0;resizeParent=1;resizeParentMax=0;resizeLast=0;collapsible=1;marginBottom=0;fontSize=14;strokeColor=#82b366;" vertex="1" parent="IDVhuWLsbfSZycR1wHgU-46">
          <mxGeometry y="60" width="120" height="104" as="geometry" />
        </mxCell>
        <mxCell id="IDVhuWLsbfSZycR1wHgU-48" value="val: 1" style="text;strokeColor=#314354;fillColor=#647687;align=left;verticalAlign=top;spacingLeft=4;spacingRight=4;overflow=hidden;rotatable=0;points=[[0,0.5],[1,0.5]];portConstraint=eastwest;fontColor=#ffffff;fontSize=14;" vertex="1" parent="IDVhuWLsbfSZycR1wHgU-47">
          <mxGeometry y="26" width="120" height="26" as="geometry" />
        </mxCell>
        <mxCell id="IDVhuWLsbfSZycR1wHgU-49" value="list: next" style="text;strokeColor=#314354;fillColor=#647687;align=left;verticalAlign=top;spacingLeft=4;spacingRight=4;overflow=hidden;rotatable=0;points=[[0,0.5],[1,0.5]];portConstraint=eastwest;fontColor=#ffffff;fontSize=14;" vertex="1" parent="IDVhuWLsbfSZycR1wHgU-47">
          <mxGeometry y="52" width="120" height="26" as="geometry" />
        </mxCell>
        <mxCell id="IDVhuWLsbfSZycR1wHgU-50" style="edgeStyle=orthogonalEdgeStyle;curved=1;rounded=0;orthogonalLoop=1;jettySize=auto;html=1;exitX=1;exitY=0.5;exitDx=0;exitDy=0;entryX=0;entryY=0.5;entryDx=0;entryDy=0;fontSize=14;" edge="1" parent="IDVhuWLsbfSZycR1wHgU-47" source="IDVhuWLsbfSZycR1wHgU-52" target="IDVhuWLsbfSZycR1wHgU-49">
          <mxGeometry relative="1" as="geometry">
            <Array as="points">
              <mxPoint x="140" y="91" />
              <mxPoint x="140" y="130" />
              <mxPoint x="-20" y="130" />
              <mxPoint x="-20" y="65" />
            </Array>
          </mxGeometry>
        </mxCell>
        <mxCell id="IDVhuWLsbfSZycR1wHgU-51" value="Prev" style="edgeLabel;html=1;align=center;verticalAlign=middle;resizable=0;points=[];fontSize=14;" vertex="1" connectable="0" parent="IDVhuWLsbfSZycR1wHgU-50">
          <mxGeometry x="-0.2303" y="-2" relative="1" as="geometry">
            <mxPoint as="offset" />
          </mxGeometry>
        </mxCell>
        <mxCell id="IDVhuWLsbfSZycR1wHgU-52" value="list: prev" style="text;strokeColor=#314354;fillColor=#647687;align=left;verticalAlign=top;spacingLeft=4;spacingRight=4;overflow=hidden;rotatable=0;points=[[0,0.5],[1,0.5]];portConstraint=eastwest;fontColor=#ffffff;fontSize=14;" vertex="1" parent="IDVhuWLsbfSZycR1wHgU-47">
          <mxGeometry y="78" width="120" height="26" as="geometry" />
        </mxCell>
        <mxCell id="IDVhuWLsbfSZycR1wHgU-53" style="edgeStyle=orthogonalEdgeStyle;curved=1;rounded=0;orthogonalLoop=1;jettySize=auto;html=1;exitX=1;exitY=0.5;exitDx=0;exitDy=0;entryX=0;entryY=0.5;entryDx=0;entryDy=0;fontSize=14;" edge="1" parent="IDVhuWLsbfSZycR1wHgU-47" source="IDVhuWLsbfSZycR1wHgU-49" target="IDVhuWLsbfSZycR1wHgU-49">
          <mxGeometry relative="1" as="geometry">
            <Array as="points">
              <mxPoint x="150" y="65" />
              <mxPoint x="150" y="-20" />
              <mxPoint x="-30" y="-20" />
              <mxPoint x="-30" y="65" />
            </Array>
          </mxGeometry>
        </mxCell>
        <mxCell id="IDVhuWLsbfSZycR1wHgU-54" value="Next" style="edgeLabel;html=1;align=center;verticalAlign=middle;resizable=0;points=[];fontSize=14;" vertex="1" connectable="0" parent="IDVhuWLsbfSZycR1wHgU-53">
          <mxGeometry x="-0.3463" y="12" relative="1" as="geometry">
            <mxPoint as="offset" />
          </mxGeometry>
        </mxCell>
        <mxCell id="IDVhuWLsbfSZycR1wHgU-55" value="节点1" style="text;html=1;align=center;verticalAlign=middle;resizable=0;points=[];autosize=1;fontSize=14;" vertex="1" parent="IDVhuWLsbfSZycR1wHgU-46">
          <mxGeometry x="35" width="50" height="20" as="geometry" />
        </mxCell>
        <mxCell id="IDVhuWLsbfSZycR1wHgU-56" value="list_head" style="swimlane;fontStyle=0;childLayout=stackLayout;horizontal=1;startSize=26;fillColor=#e1d5e7;horizontalStack=0;resizeParent=1;resizeParentMax=0;resizeLast=0;collapsible=1;marginBottom=0;fontSize=14;strokeColor=#9673a6;" vertex="1" parent="IDVhuWLsbfSZycR1wHgU-45">
          <mxGeometry x="40" y="86" width="140" height="78" as="geometry" />
        </mxCell>
        <mxCell id="IDVhuWLsbfSZycR1wHgU-57" value="Next" style="edgeStyle=orthogonalEdgeStyle;curved=1;rounded=0;orthogonalLoop=1;jettySize=auto;html=1;exitX=1;exitY=0.5;exitDx=0;exitDy=0;entryX=1;entryY=0;entryDx=0;entryDy=0;fontSize=14;" edge="1" parent="IDVhuWLsbfSZycR1wHgU-56" source="IDVhuWLsbfSZycR1wHgU-58" target="IDVhuWLsbfSZycR1wHgU-56">
          <mxGeometry relative="1" as="geometry">
            <Array as="points">
              <mxPoint x="160" y="39" />
              <mxPoint x="160" />
            </Array>
          </mxGeometry>
        </mxCell>
        <mxCell id="IDVhuWLsbfSZycR1wHgU-58" value="next" style="text;strokeColor=#314354;fillColor=#647687;align=left;verticalAlign=top;spacingLeft=4;spacingRight=4;overflow=hidden;rotatable=0;points=[[0,0.5],[1,0.5]];portConstraint=eastwest;fontColor=#ffffff;fontSize=14;" vertex="1" parent="IDVhuWLsbfSZycR1wHgU-56">
          <mxGeometry y="26" width="140" height="26" as="geometry" />
        </mxCell>
        <mxCell id="IDVhuWLsbfSZycR1wHgU-59" value="Prev" style="edgeStyle=orthogonalEdgeStyle;curved=1;rounded=0;orthogonalLoop=1;jettySize=auto;html=1;exitX=0;exitY=0.5;exitDx=0;exitDy=0;entryX=0;entryY=0.25;entryDx=0;entryDy=0;fontSize=14;" edge="1" parent="IDVhuWLsbfSZycR1wHgU-56" source="IDVhuWLsbfSZycR1wHgU-60" target="IDVhuWLsbfSZycR1wHgU-56">
          <mxGeometry relative="1" as="geometry" />
        </mxCell>
        <mxCell id="IDVhuWLsbfSZycR1wHgU-60" value="prev" style="text;strokeColor=#314354;fillColor=#647687;align=left;verticalAlign=top;spacingLeft=4;spacingRight=4;overflow=hidden;rotatable=0;points=[[0,0.5],[1,0.5]];portConstraint=eastwest;fontColor=#ffffff;fontSize=14;" vertex="1" parent="IDVhuWLsbfSZycR1wHgU-56">
          <mxGeometry y="52" width="140" height="26" as="geometry" />
        </mxCell>
        <mxCell id="IDVhuWLsbfSZycR1wHgU-61" value="listHead" style="text;html=1;align=center;verticalAlign=middle;resizable=0;points=[];autosize=1;fontSize=14;" vertex="1" parent="IDVhuWLsbfSZycR1wHgU-45">
          <mxGeometry x="75" y="40" width="70" height="20" as="geometry" />
        </mxCell>
        <mxCell id="IDVhuWLsbfSZycR1wHgU-62" value="" style="verticalLabelPosition=bottom;verticalAlign=top;html=1;shape=mxgraph.basic.x;strokeColor=#A50040;fontColor=#ffffff;fillColor=#FF3333;" vertex="1" parent="IDVhuWLsbfSZycR1wHgU-45">
          <mxGeometry x="380" y="181" width="20" height="20" as="geometry" />
        </mxCell>
        <mxCell id="IDVhuWLsbfSZycR1wHgU-63" value="" style="verticalLabelPosition=bottom;verticalAlign=top;html=1;shape=mxgraph.basic.x;strokeColor=#A50040;fontColor=#ffffff;fillColor=#FF3333;" vertex="1" parent="IDVhuWLsbfSZycR1wHgU-45">
          <mxGeometry x="340" y="20" width="20" height="20" as="geometry" />
        </mxCell>
        <mxCell id="IDVhuWLsbfSZycR1wHgU-64" value="" style="verticalLabelPosition=bottom;verticalAlign=top;html=1;shape=mxgraph.basic.x;strokeColor=#A50040;fontColor=#ffffff;fillColor=#FF3333;" vertex="1" parent="IDVhuWLsbfSZycR1wHgU-45">
          <mxGeometry x="220" y="91" width="20" height="20" as="geometry" />
        </mxCell>
        <mxCell id="IDVhuWLsbfSZycR1wHgU-65" value="" style="verticalLabelPosition=bottom;verticalAlign=top;html=1;shape=mxgraph.basic.x;strokeColor=#A50040;fontColor=#ffffff;fillColor=#FF3333;" vertex="1" parent="IDVhuWLsbfSZycR1wHgU-45">
          <mxGeometry y="141" width="20" height="20" as="geometry" />
        </mxCell>
        <mxCell id="IDVhuWLsbfSZycR1wHgU-88" value="" style="html=1;shadow=0;dashed=0;align=center;verticalAlign=middle;shape=mxgraph.arrows2.arrow;dy=0.6;dx=40;direction=south;notch=0;fillColor=#6d8764;strokeColor=#3A5431;fontColor=#ffffff;" vertex="1" parent="1">
          <mxGeometry x="394.5" y="240" width="41" height="70" as="geometry" />
        </mxCell>
        <mxCell id="IDVhuWLsbfSZycR1wHgU-67" value="" style="group" vertex="1" connectable="0" parent="1">
          <mxGeometry x="160" y="341" width="120" height="164" as="geometry" />
        </mxCell>
        <mxCell id="IDVhuWLsbfSZycR1wHgU-68" value="my_data_list" style="swimlane;fontStyle=0;childLayout=stackLayout;horizontal=1;startSize=26;fillColor=#d5e8d4;horizontalStack=0;resizeParent=1;resizeParentMax=0;resizeLast=0;collapsible=1;marginBottom=0;fontSize=14;strokeColor=#82b366;" vertex="1" parent="IDVhuWLsbfSZycR1wHgU-67">
          <mxGeometry y="60" width="120" height="104" as="geometry" />
        </mxCell>
        <mxCell id="IDVhuWLsbfSZycR1wHgU-69" value="val: 1" style="text;strokeColor=#314354;fillColor=#647687;align=left;verticalAlign=top;spacingLeft=4;spacingRight=4;overflow=hidden;rotatable=0;points=[[0,0.5],[1,0.5]];portConstraint=eastwest;fontColor=#ffffff;fontSize=14;" vertex="1" parent="IDVhuWLsbfSZycR1wHgU-68">
          <mxGeometry y="26" width="120" height="26" as="geometry" />
        </mxCell>
        <mxCell id="IDVhuWLsbfSZycR1wHgU-70" value="list: next" style="text;strokeColor=#314354;fillColor=#647687;align=left;verticalAlign=top;spacingLeft=4;spacingRight=4;overflow=hidden;rotatable=0;points=[[0,0.5],[1,0.5]];portConstraint=eastwest;fontColor=#ffffff;fontSize=14;" vertex="1" parent="IDVhuWLsbfSZycR1wHgU-68">
          <mxGeometry y="52" width="120" height="26" as="geometry" />
        </mxCell>
        <mxCell id="IDVhuWLsbfSZycR1wHgU-71" value="list: prev" style="text;strokeColor=#314354;fillColor=#647687;align=left;verticalAlign=top;spacingLeft=4;spacingRight=4;overflow=hidden;rotatable=0;points=[[0,0.5],[1,0.5]];portConstraint=eastwest;fontColor=#ffffff;fontSize=14;" vertex="1" parent="IDVhuWLsbfSZycR1wHgU-68">
          <mxGeometry y="78" width="120" height="26" as="geometry" />
        </mxCell>
        <mxCell id="IDVhuWLsbfSZycR1wHgU-72" value="节点1" style="text;html=1;align=center;verticalAlign=middle;resizable=0;points=[];autosize=1;fontSize=14;" vertex="1" parent="IDVhuWLsbfSZycR1wHgU-67">
          <mxGeometry x="35" width="50" height="20" as="geometry" />
        </mxCell>
        <mxCell id="IDVhuWLsbfSZycR1wHgU-89" value="" style="group" vertex="1" connectable="0" parent="1">
          <mxGeometry x="530" y="390" width="140" height="124" as="geometry" />
        </mxCell>
        <mxCell id="IDVhuWLsbfSZycR1wHgU-73" value="list_head" style="swimlane;fontStyle=0;childLayout=stackLayout;horizontal=1;startSize=26;fillColor=#e1d5e7;horizontalStack=0;resizeParent=1;resizeParentMax=0;resizeLast=0;collapsible=1;marginBottom=0;fontSize=14;strokeColor=#9673a6;" vertex="1" parent="IDVhuWLsbfSZycR1wHgU-89">
          <mxGeometry x="-8" y="31" width="140" height="78" as="geometry" />
        </mxCell>
        <mxCell id="IDVhuWLsbfSZycR1wHgU-74" value="next" style="text;strokeColor=#314354;fillColor=#647687;align=left;verticalAlign=top;spacingLeft=4;spacingRight=4;overflow=hidden;rotatable=0;points=[[0,0.5],[1,0.5]];portConstraint=eastwest;fontColor=#ffffff;fontSize=14;" vertex="1" parent="IDVhuWLsbfSZycR1wHgU-73">
          <mxGeometry y="26" width="140" height="26" as="geometry" />
        </mxCell>
        <mxCell id="IDVhuWLsbfSZycR1wHgU-75" value="prev" style="text;strokeColor=#314354;fillColor=#647687;align=left;verticalAlign=top;spacingLeft=4;spacingRight=4;overflow=hidden;rotatable=0;points=[[0,0.5],[1,0.5]];portConstraint=eastwest;fontColor=#ffffff;fontSize=14;" vertex="1" parent="IDVhuWLsbfSZycR1wHgU-73">
          <mxGeometry y="52" width="140" height="26" as="geometry" />
        </mxCell>
        <mxCell id="IDVhuWLsbfSZycR1wHgU-76" value="listHead" style="text;html=1;align=center;verticalAlign=middle;resizable=0;points=[];autosize=1;fontSize=14;" vertex="1" parent="IDVhuWLsbfSZycR1wHgU-89">
          <mxGeometry x="35" width="70" height="20" as="geometry" />
        </mxCell>
        <mxCell id="IDVhuWLsbfSZycR1wHgU-91" style="edgeStyle=orthogonalEdgeStyle;curved=1;rounded=0;orthogonalLoop=1;jettySize=auto;html=1;exitX=0;exitY=0.75;exitDx=0;exitDy=0;entryX=1;entryY=0;entryDx=0;entryDy=0;fillColor=#6a00ff;strokeColor=#3700CC;" edge="1" parent="1" source="IDVhuWLsbfSZycR1wHgU-73" target="IDVhuWLsbfSZycR1wHgU-68">
          <mxGeometry relative="1" as="geometry" />
        </mxCell>
        <mxCell id="IDVhuWLsbfSZycR1wHgU-93" value="Prev" style="edgeLabel;html=1;align=center;verticalAlign=middle;resizable=0;points=[];" vertex="1" connectable="0" parent="IDVhuWLsbfSZycR1wHgU-91">
          <mxGeometry x="-0.4872" y="-15" relative="1" as="geometry">
            <mxPoint as="offset" />
          </mxGeometry>
        </mxCell>
        <mxCell id="IDVhuWLsbfSZycR1wHgU-95" value="(1)" style="text;html=1;align=center;verticalAlign=middle;resizable=0;points=[];autosize=1;" vertex="1" parent="1">
          <mxGeometry x="415" y="480" width="30" height="20" as="geometry" />
        </mxCell>
        <mxCell id="IDVhuWLsbfSZycR1wHgU-96" value="(2)" style="text;html=1;align=center;verticalAlign=middle;resizable=0;points=[];autosize=1;" vertex="1" parent="1">
          <mxGeometry x="323" y="478" width="30" height="20" as="geometry" />
        </mxCell>
        <mxCell id="IDVhuWLsbfSZycR1wHgU-97" style="edgeStyle=orthogonalEdgeStyle;curved=1;rounded=0;orthogonalLoop=1;jettySize=auto;html=1;exitX=1;exitY=0.5;exitDx=0;exitDy=0;entryX=0;entryY=0.115;entryDx=0;entryDy=0;entryPerimeter=0;" edge="1" parent="1" source="IDVhuWLsbfSZycR1wHgU-70" target="IDVhuWLsbfSZycR1wHgU-73">
          <mxGeometry relative="1" as="geometry">
            <Array as="points">
              <mxPoint x="280" y="430" />
            </Array>
          </mxGeometry>
        </mxCell>
        <mxCell id="IDVhuWLsbfSZycR1wHgU-98" value="Next" style="edgeLabel;html=1;align=center;verticalAlign=middle;resizable=0;points=[];" vertex="1" connectable="0" parent="IDVhuWLsbfSZycR1wHgU-97">
          <mxGeometry x="-0.3309" y="-9" relative="1" as="geometry">
            <mxPoint as="offset" />
          </mxGeometry>
        </mxCell>
        <mxCell id="IDVhuWLsbfSZycR1wHgU-99" style="edgeStyle=orthogonalEdgeStyle;curved=1;rounded=0;orthogonalLoop=1;jettySize=auto;html=1;exitX=1;exitY=0.5;exitDx=0;exitDy=0;entryX=0.75;entryY=0;entryDx=0;entryDy=0;" edge="1" parent="1" source="IDVhuWLsbfSZycR1wHgU-73" target="IDVhuWLsbfSZycR1wHgU-68">
          <mxGeometry relative="1" as="geometry">
            <Array as="points">
              <mxPoint x="682" y="460" />
              <mxPoint x="682" y="350" />
              <mxPoint x="250" y="350" />
            </Array>
          </mxGeometry>
        </mxCell>
        <mxCell id="IDVhuWLsbfSZycR1wHgU-103" value="Next" style="edgeLabel;html=1;align=center;verticalAlign=middle;resizable=0;points=[];" vertex="1" connectable="0" parent="IDVhuWLsbfSZycR1wHgU-99">
          <mxGeometry x="0.0767" y="-2" relative="1" as="geometry">
            <mxPoint as="offset" />
          </mxGeometry>
        </mxCell>
        <mxCell id="IDVhuWLsbfSZycR1wHgU-100" style="edgeStyle=orthogonalEdgeStyle;curved=1;rounded=0;orthogonalLoop=1;jettySize=auto;html=1;exitX=1;exitY=0.5;exitDx=0;exitDy=0;entryX=1;entryY=0.25;entryDx=0;entryDy=0;fillColor=#6a00ff;strokeColor=#3700CC;" edge="1" parent="1" source="IDVhuWLsbfSZycR1wHgU-71" target="IDVhuWLsbfSZycR1wHgU-73">
          <mxGeometry relative="1" as="geometry">
            <Array as="points">
              <mxPoint x="280" y="550" />
              <mxPoint x="682" y="550" />
              <mxPoint x="682" y="441" />
            </Array>
          </mxGeometry>
        </mxCell>
        <mxCell id="IDVhuWLsbfSZycR1wHgU-101" value="Prev" style="edgeLabel;html=1;align=center;verticalAlign=middle;resizable=0;points=[];" vertex="1" connectable="0" parent="IDVhuWLsbfSZycR1wHgU-100">
          <mxGeometry x="-0.2706" relative="1" as="geometry">
            <mxPoint as="offset" />
          </mxGeometry>
        </mxCell>
        <mxCell id="IDVhuWLsbfSZycR1wHgU-102" value="(3)" style="text;html=1;align=center;verticalAlign=middle;resizable=0;points=[];autosize=1;" vertex="1" parent="1">
          <mxGeometry x="425" y="560" width="30" height="20" as="geometry" />
        </mxCell>
        <mxCell id="IDVhuWLsbfSZycR1wHgU-104" value="(4)" style="text;html=1;align=center;verticalAlign=middle;resizable=0;points=[];autosize=1;" vertex="1" parent="1">
          <mxGeometry x="465" y="360" width="30" height="20" as="geometry" />
        </mxCell>
      </root>
    </mxGraphModel>
  </diagram>
</mxfile>
